<?xml version="1.0" encoding="UTF-8" standalone="no"?>
<!-- Created with Inkscape (http://www.inkscape.org/) -->

<svg
   xmlns:dc="http://purl.org/dc/elements/1.1/"
   xmlns:cc="http://creativecommons.org/ns#"
   xmlns:rdf="http://www.w3.org/1999/02/22-rdf-syntax-ns#"
   xmlns:svg="http://www.w3.org/2000/svg"
   xmlns="http://www.w3.org/2000/svg"
   version="1.1"
   width="447"
   height="147"
   viewBox="-0.651 -0.476 447 147"
   id="svg3760"
   xml:space="preserve"
   style="overflow:visible"><metadata
   id="metadata4498"><rdf:RDF><cc:Work
       rdf:about=""><dc:format>image/svg+xml</dc:format><dc:type
         rdf:resource="http://purl.org/dc/dcmitype/StillImage" /><dc:title></dc:title></cc:Work></rdf:RDF></metadata>
<defs
   id="defs3762">
</defs>
<polygon
   points="205.117,107.88 203.696,107.88 175.606,42.407 182.732,42.407 204.41,93.014 226.482,42.407 233.609,42.407 "
   id="polygon3764"
   style="fill:#ffffff" />
<path
   d="m 315.094,60.467 c 0.076,-0.007 0.211,-0.007 0.211,-0.007 v 5.646 c 0,0 -0.117,0.003 -0.189,0.007 c -1.779,0.146 -8.928,3.052 -11.189,8.337 c -1.889,4.424 -1.717,8.218 -1.717,10.333 v 22.894 h -6.184 c 0,0 -0.055,-18.619 -0.055,-22.894 c 0,-4.266 0.258,-9.515 2.771,-14.131 c 4.414,-8.1 14.104,-10.122 16.352,-10.185"
   id="path3766"
   style="fill:#ffffff" />
<path
   d="m 369.699,84.444 c 0,6.872 -2.336,12.662 -7.008,17.37 c -4.668,4.702 -10.432,7.062 -17.303,7.062 c -6.875,0 -12.646,-2.35 -17.326,-7.041 C 323.38,97.142 321.033,91.34 321.033,84.443 c 0,-6.469 2.16,-12.081 6.447,-16.83 c 4.723,-5.242 10.691,-7.862 17.908,-7.862 c 7.186,0 13.141,2.607 17.863,7.812 c 4.294,4.758 6.448,10.384 6.448,16.881 m -6.146,0.123 c 0,-5.135 -1.752,-9.57 -5.248,-13.297 c -3.504,-3.728 -7.803,-5.589 -12.916,-5.589 c -5.107,0 -9.416,1.861 -12.914,5.589 c -3.502,3.727 -5.254,8.162 -5.254,13.297 c 0,3.313 0.793,6.413 2.361,9.303 c 1.625,2.963 3.838,5.252 6.641,6.855 c 2.797,1.6 5.85,2.402 9.166,2.402 c 7.08,0 12.328,-3.048 15.719,-9.135 c 1.632,-2.91 2.445,-6.048 2.445,-9.425"
   id="path3768"
   style="fill:#ffffff" />
<rect
   width="6.0609999"
   height="64.760002"
   x="379.95099"
   y="42.917"
   id="rect3770"
   style="fill:#ffffff" />
<path
   d="m 445.477,83.502 c 0,0.021 0,0.041 0,0.066 V 42.917 h -6.051 v 25.071 c 0.363,0.415 0.693,0.85 1.014,1.276 c -0.428,-0.556 -0.883,-1.111 -1.365,-1.66 c -4.73,-5.2 -10.686,-7.81 -17.867,-7.81 c -7.215,0 -13.189,2.621 -17.912,7.86 c -4.287,4.758 -6.438,10.36 -6.438,16.827 c 0,6.901 2.346,12.707 7.027,17.394 c 4.67,4.702 10.453,7.042 17.322,7.042 c 6.875,0 12.641,-2.356 17.305,-7.055 c 4.668,-4.715 6.965,-10.502 6.965,-17.381 c 0,-0.336 0.005,-0.649 0,-0.979 m -3.692,-12.316 c -0.373,-0.581 -0.756,-1.155 -1.172,-1.71 c 0.416,0.555 0.809,1.124 1.172,1.71 m 3.545,10.242 c -0.008,-0.062 -0.023,-0.133 -0.029,-0.199 c 0.006,0.066 0.021,0.137 0.029,0.199 m -0.324,-2.117 c -0.018,-0.101 -0.041,-0.202 -0.07,-0.307 c 0.029,0.105 0.052,0.206 0.07,0.307 M 444.51,77.253 C 444.469,77.1 444.412,76.95 444.364,76.8 c 0.048,0.151 0.105,0.3 0.146,0.453 m -0.672,-2.003 c -0.148,-0.38 -0.322,-0.751 -0.488,-1.12 c 0.166,0.37 0.339,0.741 0.488,1.12 m -0.848,-1.942 c -0.328,-0.666 -0.693,-1.312 -1.086,-1.946 c 0.393,0.637 0.758,1.28 1.086,1.946 m -6.082,20.64 c -3.396,6.091 -8.637,9.134 -15.721,9.134 c -3.312,0 -6.367,-0.798 -9.162,-2.401 c -2.811,-1.604 -5.023,-3.889 -6.643,-6.857 c -1.576,-2.884 -2.361,-5.985 -2.361,-9.297 c 0,-5.135 1.746,-9.57 5.248,-13.299 c 3.496,-3.73 7.803,-5.591 12.918,-5.591 c 5.115,0 9.418,1.86 12.91,5.591 c 3.504,3.729 5.25,8.164 5.25,13.299 c 0.001,3.375 -0.814,6.506 -2.439,9.421"
   id="path3772"
   style="fill:#ffffff" />
<path
   d="m 285.654,84.843 h -41.949 c 0.115,5.227 1.74,9.584 4.887,13.068 c 3.318,3.654 7.554,5.486 12.697,5.486 c 4.976,0 9.195,-1.512 12.653,-4.541 c 1.576,-1.372 3.274,-3.572 5.103,-6.626 l 5.07,2.662 c -3.151,6.158 -7.516,10.304 -13.098,12.447 c -2.724,1.067 -5.799,1.592 -9.237,1.592 c -7.005,0 -12.817,-2.319 -17.405,-6.949 c -4.599,-4.642 -6.9,-10.468 -6.9,-17.486 c 0,-5.926 1.824,-11.208 5.457,-15.841 c 4.608,-5.894 10.787,-8.848 18.507,-8.848 c 7.954,0 14.31,3.02 19.064,9.063 c 3.384,4.292 5.099,9.617 5.151,15.973 M 279.088,79.6 c -1.49,-5.882 -4.681,-9.969 -9.578,-12.247 c -2.514,-1.161 -5.166,-1.746 -7.941,-1.746 c -4.578,0 -8.514,1.467 -11.807,4.395 c -2.402,2.138 -4.225,5.331 -5.453,9.599 h 34.779 z"
   id="path3774"
   style="fill:#ffffff" />
<radialGradient
   cx="73.8228"
   cy="72.790497"
   r="73.064903"
   id="SVGID_1_"
   gradientUnits="userSpaceOnUse">
	<stop
   id="stop3777"
   style="stop-color:#ffffff;stop-opacity:1"
   offset="0.14839999" />
	<stop
   id="stop3779"
   style="stop-color:#f2f3f3;stop-opacity:1"
   offset="0.1831" />
	<stop
   id="stop3781"
   style="stop-color:#a2a4a7;stop-opacity:1"
   offset="0.48809999" />
	<stop
   id="stop3783"
   style="stop-color:#6d6e71;stop-opacity:1"
   offset="0.73470002" />
	<stop
   id="stop3785"
   style="stop-color:#474749;stop-opacity:1"
   offset="0.9109" />
	<stop
   id="stop3787"
   style="stop-color:#2e2e2f;stop-opacity:1"
   offset="1" />
</radialGradient>
<path
   d="M 75.877,15.36 C 80.01,14.011 82.268,9.575 80.913,5.43 C 79.567,1.292 75.12,-0.961 70.988,0.392 c -4.129,1.338 -6.393,5.796 -5.046,9.925 c 1.354,4.134 5.796,6.394 9.935,5.043"
   id="path3789"
   style="fill:#ffffff" />
<radialGradient
   cx="73.823196"
   cy="72.786598"
   r="73.060997"
   id="SVGID_2_"
   gradientUnits="userSpaceOnUse">
	<stop
   id="stop3792"
   style="stop-color:#ffffff;stop-opacity:1"
   offset="0.14839999" />
	<stop
   id="stop3794"
   style="stop-color:#f2f3f3;stop-opacity:1"
   offset="0.1831" />
	<stop
   id="stop3796"
   style="stop-color:#a2a4a7;stop-opacity:1"
   offset="0.48809999" />
	<stop
   id="stop3798"
   style="stop-color:#6d6e71;stop-opacity:1"
   offset="0.73470002" />
	<stop
   id="stop3800"
   style="stop-color:#474749;stop-opacity:1"
   offset="0.9109" />
	<stop
   id="stop3802"
   style="stop-color:#2e2e2f;stop-opacity:1"
   offset="1" />
</radialGradient>
<path
   d="m 42.999,24.115 c 4.175,-1.366 6.458,-5.846 5.094,-10.034 C 46.731,9.904 42.236,7.623 38.064,8.987 c -4.177,1.36 -6.458,5.853 -5.1,10.028 c 1.369,4.179 5.859,6.458 10.035,5.1"
   id="path3804"
   style="fill:#ffffff" />
<radialGradient
   cx="73.820297"
   cy="72.786598"
   r="73.058296"
   id="SVGID_3_"
   gradientUnits="userSpaceOnUse">
	<stop
   id="stop3807"
   style="stop-color:#ffffff;stop-opacity:1"
   offset="0.14839999" />
	<stop
   id="stop3809"
   style="stop-color:#f2f3f3;stop-opacity:1"
   offset="0.1831" />
	<stop
   id="stop3811"
   style="stop-color:#a2a4a7;stop-opacity:1"
   offset="0.48809999" />
	<stop
   id="stop3813"
   style="stop-color:#6d6e71;stop-opacity:1"
   offset="0.73470002" />
	<stop
   id="stop3815"
   style="stop-color:#474749;stop-opacity:1"
   offset="0.9109" />
	<stop
   id="stop3817"
   style="stop-color:#2e2e2f;stop-opacity:1"
   offset="1" />
</radialGradient>
<path
   d="m 19.101,48.111 c 4.172,-1.362 6.457,-5.854 5.092,-10.032 C 22.831,33.9 18.335,31.62 14.166,32.983 c -4.174,1.36 -6.459,5.853 -5.097,10.026 c 1.368,4.179 5.859,6.465 10.032,5.102"
   id="path3819"
   style="fill:#ffffff" />
<radialGradient
   cx="73.820801"
   cy="72.784698"
   r="73.058502"
   id="SVGID_4_"
   gradientUnits="userSpaceOnUse">
	<stop
   id="stop3822"
   style="stop-color:#ffffff;stop-opacity:1"
   offset="0.14839999" />
	<stop
   id="stop3824"
   style="stop-color:#f2f3f3;stop-opacity:1"
   offset="0.1831" />
	<stop
   id="stop3826"
   style="stop-color:#a2a4a7;stop-opacity:1"
   offset="0.48809999" />
	<stop
   id="stop3828"
   style="stop-color:#6d6e71;stop-opacity:1"
   offset="0.73470002" />
	<stop
   id="stop3830"
   style="stop-color:#474749;stop-opacity:1"
   offset="0.9109" />
	<stop
   id="stop3832"
   style="stop-color:#2e2e2f;stop-opacity:1"
   offset="1" />
</radialGradient>
<path
   d="M 15.521,70.426 C 14.154,66.245 9.66,63.968 5.489,65.332 c -4.178,1.359 -6.455,5.85 -5.095,10.027 c 1.368,4.18 5.854,6.459 10.032,5.096 c 4.174,-1.366 6.457,-5.849 5.095,-10.029"
   id="path3834"
   style="fill:#ffffff" />
<radialGradient
   cx="73.824203"
   cy="72.786598"
   r="73.0616"
   id="SVGID_5_"
   gradientUnits="userSpaceOnUse">
	<stop
   id="stop3837"
   style="stop-color:#ffffff;stop-opacity:1"
   offset="0.14839999" />
	<stop
   id="stop3839"
   style="stop-color:#f2f3f3;stop-opacity:1"
   offset="0.1831" />
	<stop
   id="stop3841"
   style="stop-color:#a2a4a7;stop-opacity:1"
   offset="0.48809999" />
	<stop
   id="stop3843"
   style="stop-color:#6d6e71;stop-opacity:1"
   offset="0.73470002" />
	<stop
   id="stop3845"
   style="stop-color:#474749;stop-opacity:1"
   offset="0.9109" />
	<stop
   id="stop3847"
   style="stop-color:#2e2e2f;stop-opacity:1"
   offset="1" />
</radialGradient>
<path
   d="m 14.388,98.28 c -4.169,1.354 -6.459,5.848 -5.096,10.024 c 1.37,4.182 5.857,6.467 10.036,5.098 c 4.175,-1.362 6.456,-5.848 5.09,-10.029 c -1.362,-4.18 -5.852,-6.458 -10.03,-5.093"
   id="path3849"
   style="fill:#ffffff" />
<radialGradient
   cx="73.821297"
   cy="72.785599"
   r="73.061302"
   id="SVGID_6_"
   gradientUnits="userSpaceOnUse">
	<stop
   id="stop3852"
   style="stop-color:#ffffff;stop-opacity:1"
   offset="0.14839999" />
	<stop
   id="stop3854"
   style="stop-color:#f2f3f3;stop-opacity:1"
   offset="0.1831" />
	<stop
   id="stop3856"
   style="stop-color:#a2a4a7;stop-opacity:1"
   offset="0.48809999" />
	<stop
   id="stop3858"
   style="stop-color:#6d6e71;stop-opacity:1"
   offset="0.73470002" />
	<stop
   id="stop3860"
   style="stop-color:#474749;stop-opacity:1"
   offset="0.9109" />
	<stop
   id="stop3862"
   style="stop-color:#2e2e2f;stop-opacity:1"
   offset="1" />
</radialGradient>
<path
   d="m 38.332,122.169 c -4.174,1.356 -6.457,5.847 -5.093,10.024 c 1.364,4.175 5.855,6.463 10.032,5.098 c 4.174,-1.365 6.459,-5.851 5.091,-10.03 c -1.36,-4.178 -5.859,-6.46 -10.03,-5.092"
   id="path3864"
   style="fill:#ffffff" />
<radialGradient
   cx="73.8218"
   cy="72.792503"
   r="73.053101"
   id="SVGID_7_"
   gradientUnits="userSpaceOnUse">
	<stop
   id="stop3867"
   style="stop-color:#ffffff;stop-opacity:1"
   offset="0.14839999" />
	<stop
   id="stop3869"
   style="stop-color:#f2f3f3;stop-opacity:1"
   offset="0.1831" />
	<stop
   id="stop3871"
   style="stop-color:#a2a4a7;stop-opacity:1"
   offset="0.48809999" />
	<stop
   id="stop3873"
   style="stop-color:#6d6e71;stop-opacity:1"
   offset="0.73470002" />
	<stop
   id="stop3875"
   style="stop-color:#474749;stop-opacity:1"
   offset="0.9109" />
	<stop
   id="stop3877"
   style="stop-color:#2e2e2f;stop-opacity:1"
   offset="1" />
</radialGradient>
<path
   d="m 70.895,130.844 c -4.171,1.351 -6.458,5.85 -5.097,10.025 c 1.367,4.179 5.858,6.458 10.035,5.095 c 4.174,-1.359 6.455,-5.85 5.09,-10.032 c -1.36,-4.175 -5.856,-6.455 -10.028,-5.088"
   id="path3879"
   style="fill:#ffffff" />
<radialGradient
   cx="73.824699"
   cy="72.788597"
   r="73.056503"
   id="SVGID_8_"
   gradientUnits="userSpaceOnUse">
	<stop
   id="stop3882"
   style="stop-color:#ffffff;stop-opacity:1"
   offset="0.14839999" />
	<stop
   id="stop3884"
   style="stop-color:#f2f3f3;stop-opacity:1"
   offset="0.1831" />
	<stop
   id="stop3886"
   style="stop-color:#a2a4a7;stop-opacity:1"
   offset="0.48809999" />
	<stop
   id="stop3888"
   style="stop-color:#6d6e71;stop-opacity:1"
   offset="0.73470002" />
	<stop
   id="stop3890"
   style="stop-color:#474749;stop-opacity:1"
   offset="0.9109" />
	<stop
   id="stop3892"
   style="stop-color:#2e2e2f;stop-opacity:1"
   offset="1" />
</radialGradient>
<path
   d="m 103.46,121.998 c -4.179,1.354 -6.458,5.852 -5.099,10.024 c 1.368,4.18 5.857,6.46 10.036,5.092 c 4.174,-1.362 6.455,-5.842 5.087,-10.024 c -1.359,-4.176 -5.856,-6.461 -10.024,-5.092"
   id="path3894"
   style="fill:#ffffff" />
<radialGradient
   cx="73.819298"
   cy="72.786598"
   r="73.0634"
   id="SVGID_9_"
   gradientUnits="userSpaceOnUse">
	<stop
   id="stop3897"
   style="stop-color:#ffffff;stop-opacity:1"
   offset="0.14839999" />
	<stop
   id="stop3899"
   style="stop-color:#f2f3f3;stop-opacity:1"
   offset="0.1831" />
	<stop
   id="stop3901"
   style="stop-color:#a2a4a7;stop-opacity:1"
   offset="0.48809999" />
	<stop
   id="stop3903"
   style="stop-color:#6d6e71;stop-opacity:1"
   offset="0.73470002" />
	<stop
   id="stop3905"
   style="stop-color:#474749;stop-opacity:1"
   offset="0.9109" />
	<stop
   id="stop3907"
   style="stop-color:#2e2e2f;stop-opacity:1"
   offset="1" />
</radialGradient>
<path
   d="m 127.176,98.223 c -4.175,1.356 -6.456,5.851 -5.096,10.025 c 1.364,4.177 5.856,6.462 10.035,5.097 c 4.17,-1.366 6.452,-5.847 5.088,-10.031 c -1.36,-4.178 -5.856,-6.455 -10.027,-5.091"
   id="path3909"
   style="fill:#ffffff" />
<radialGradient
   cx="73.819298"
   cy="72.785599"
   r="73.0634"
   id="SVGID_10_"
   gradientUnits="userSpaceOnUse">
	<stop
   id="stop3912"
   style="stop-color:#ffffff;stop-opacity:1"
   offset="0.14839999" />
	<stop
   id="stop3914"
   style="stop-color:#f2f3f3;stop-opacity:1"
   offset="0.1831" />
	<stop
   id="stop3916"
   style="stop-color:#a2a4a7;stop-opacity:1"
   offset="0.48809999" />
	<stop
   id="stop3918"
   style="stop-color:#6d6e71;stop-opacity:1"
   offset="0.73470002" />
	<stop
   id="stop3920"
   style="stop-color:#474749;stop-opacity:1"
   offset="0.9109" />
	<stop
   id="stop3922"
   style="stop-color:#2e2e2f;stop-opacity:1"
   offset="1" />
</radialGradient>
<path
   d="m 146.054,70.75 c -1.361,-4.179 -5.861,-6.455 -10.029,-5.088 c -4.178,1.356 -6.458,5.848 -5.099,10.028 c 1.364,4.178 5.854,6.455 10.033,5.093 c 4.177,-1.366 6.455,-5.849 5.095,-10.033"
   id="path3924"
   style="fill:#ffffff" />
<radialGradient
   cx="73.818398"
   cy="72.783699"
   r="73.064102"
   id="SVGID_11_"
   gradientUnits="userSpaceOnUse">
	<stop
   id="stop3927"
   style="stop-color:#ffffff;stop-opacity:1"
   offset="0.14839999" />
	<stop
   id="stop3929"
   style="stop-color:#f2f3f3;stop-opacity:1"
   offset="0.1831" />
	<stop
   id="stop3931"
   style="stop-color:#a2a4a7;stop-opacity:1"
   offset="0.48809999" />
	<stop
   id="stop3933"
   style="stop-color:#6d6e71;stop-opacity:1"
   offset="0.73470002" />
	<stop
   id="stop3935"
   style="stop-color:#474749;stop-opacity:1"
   offset="0.9109" />
	<stop
   id="stop3937"
   style="stop-color:#2e2e2f;stop-opacity:1"
   offset="1" />
</radialGradient>
<path
   d="m 132.226,48.219 c 4.171,-1.362 6.455,-5.846 5.092,-10.028 c -1.361,-4.181 -5.857,-6.461 -10.032,-5.098 c -4.171,1.362 -6.452,5.855 -5.096,10.028 c 1.368,4.179 5.857,6.463 10.036,5.098"
   id="path3939"
   style="fill:#ffffff" />
<radialGradient
   cx="73.820801"
   cy="72.790497"
   r="73.066101"
   id="SVGID_12_"
   gradientUnits="userSpaceOnUse">
	<stop
   id="stop3942"
   style="stop-color:#ffffff;stop-opacity:1"
   offset="0.14839999" />
	<stop
   id="stop3944"
   style="stop-color:#f2f3f3;stop-opacity:1"
   offset="0.1831" />
	<stop
   id="stop3946"
   style="stop-color:#a2a4a7;stop-opacity:1"
   offset="0.48809999" />
	<stop
   id="stop3948"
   style="stop-color:#6d6e71;stop-opacity:1"
   offset="0.73470002" />
	<stop
   id="stop3950"
   style="stop-color:#474749;stop-opacity:1"
   offset="0.9109" />
	<stop
   id="stop3952"
   style="stop-color:#2e2e2f;stop-opacity:1"
   offset="1" />
</radialGradient>
<path
   d="m 103.518,9.208 c -4.175,1.358 -6.463,5.854 -5.099,10.028 c 1.366,4.181 5.856,6.459 10.031,5.097 c 4.175,-1.359 6.456,-5.851 5.092,-10.029 c -1.356,-4.177 -5.857,-6.46 -10.024,-5.096"
   id="path3954"
   style="fill:#ffffff" />
<radialGradient
   cx="73.827599"
   cy="72.785599"
   r="73.054001"
   id="SVGID_13_"
   gradientUnits="userSpaceOnUse">
	<stop
   id="stop3957"
   style="stop-color:#ffffff;stop-opacity:1"
   offset="0.14839999" />
	<stop
   id="stop3959"
   style="stop-color:#f2f3f3;stop-opacity:1"
   offset="0.1831" />
	<stop
   id="stop3961"
   style="stop-color:#a2a4a7;stop-opacity:1"
   offset="0.48809999" />
	<stop
   id="stop3963"
   style="stop-color:#6d6e71;stop-opacity:1"
   offset="0.73470002" />
	<stop
   id="stop3965"
   style="stop-color:#474749;stop-opacity:1"
   offset="0.9109" />
	<stop
   id="stop3967"
   style="stop-color:#2e2e2f;stop-opacity:1"
   offset="1" />
</radialGradient>
<path
   d="m 124.074,80.352 c -3.099,-1.57 -6.884,-0.332 -8.449,2.761 c -1.575,3.09 -0.341,6.874 2.751,8.449 c 3.098,1.573 6.879,0.336 8.452,-2.757 c 1.572,-3.096 0.343,-6.872 -2.754,-8.453"
   id="path3969"
   style="fill:#ffffff" />
<radialGradient
   cx="73.819801"
   cy="72.784698"
   r="73.064003"
   id="SVGID_14_"
   gradientUnits="userSpaceOnUse">
	<stop
   id="stop3972"
   style="stop-color:#ffffff;stop-opacity:1"
   offset="0.14839999" />
	<stop
   id="stop3974"
   style="stop-color:#f2f3f3;stop-opacity:1"
   offset="0.1831" />
	<stop
   id="stop3976"
   style="stop-color:#a2a4a7;stop-opacity:1"
   offset="0.48809999" />
	<stop
   id="stop3978"
   style="stop-color:#6d6e71;stop-opacity:1"
   offset="0.73470002" />
	<stop
   id="stop3980"
   style="stop-color:#474749;stop-opacity:1"
   offset="0.9109" />
	<stop
   id="stop3982"
   style="stop-color:#2e2e2f;stop-opacity:1"
   offset="1" />
</radialGradient>
<path
   d="m 118.349,66.006 c 3.096,1.568 6.876,0.338 8.453,-2.762 c 1.568,-3.091 0.34,-6.872 -2.758,-8.444 c -3.099,-1.578 -6.887,-0.337 -8.452,2.754 c -1.576,3.09 -0.338,6.876 2.757,8.452"
   id="path3984"
   style="fill:#ffffff" />
<radialGradient
   cx="73.822304"
   cy="72.783699"
   r="73.058998"
   id="SVGID_15_"
   gradientUnits="userSpaceOnUse">
	<stop
   id="stop3987"
   style="stop-color:#ffffff;stop-opacity:1"
   offset="0.14839999" />
	<stop
   id="stop3989"
   style="stop-color:#f2f3f3;stop-opacity:1"
   offset="0.1831" />
	<stop
   id="stop3991"
   style="stop-color:#a2a4a7;stop-opacity:1"
   offset="0.48809999" />
	<stop
   id="stop3993"
   style="stop-color:#6d6e71;stop-opacity:1"
   offset="0.73470002" />
	<stop
   id="stop3995"
   style="stop-color:#474749;stop-opacity:1"
   offset="0.9109" />
	<stop
   id="stop3997"
   style="stop-color:#2e2e2f;stop-opacity:1"
   offset="1" />
</radialGradient>
<path
   d="m 41.103,32.358 c -3.097,-1.568 -6.881,-0.333 -8.452,2.759 c -1.578,3.088 -0.339,6.876 2.756,8.452 c 3.097,1.566 6.879,0.332 8.454,-2.762 c 1.573,-3.092 0.342,-6.87 -2.758,-8.449"
   id="path3999"
   style="fill:#ffffff" />
<radialGradient
   cx="73.823196"
   cy="72.785599"
   r="73.061996"
   id="SVGID_16_"
   gradientUnits="userSpaceOnUse">
	<stop
   id="stop4002"
   style="stop-color:#ffffff;stop-opacity:1"
   offset="0.14839999" />
	<stop
   id="stop4004"
   style="stop-color:#f2f3f3;stop-opacity:1"
   offset="0.1831" />
	<stop
   id="stop4006"
   style="stop-color:#a2a4a7;stop-opacity:1"
   offset="0.48809999" />
	<stop
   id="stop4008"
   style="stop-color:#6d6e71;stop-opacity:1"
   offset="0.73470002" />
	<stop
   id="stop4010"
   style="stop-color:#474749;stop-opacity:1"
   offset="0.9109" />
	<stop
   id="stop4012"
   style="stop-color:#2e2e2f;stop-opacity:1"
   offset="1" />
</radialGradient>
<path
   d="m 22.368,65.94 c 3.1,1.573 6.881,0.34 8.461,-2.76 c 1.564,-3.091 0.335,-6.872 -2.77,-8.453 c -3.09,-1.57 -6.876,-0.328 -8.44,2.767 c -1.576,3.088 -0.343,6.877 2.749,8.446"
   id="path4014"
   style="fill:#ffffff" />
<radialGradient
   cx="73.8228"
   cy="72.784698"
   r="73.061401"
   id="SVGID_17_"
   gradientUnits="userSpaceOnUse">
	<stop
   id="stop4017"
   style="stop-color:#ffffff;stop-opacity:1"
   offset="0.14839999" />
	<stop
   id="stop4019"
   style="stop-color:#f2f3f3;stop-opacity:1"
   offset="0.1831" />
	<stop
   id="stop4021"
   style="stop-color:#a2a4a7;stop-opacity:1"
   offset="0.48809999" />
	<stop
   id="stop4023"
   style="stop-color:#6d6e71;stop-opacity:1"
   offset="0.73470002" />
	<stop
   id="stop4025"
   style="stop-color:#474749;stop-opacity:1"
   offset="0.9109" />
	<stop
   id="stop4027"
   style="stop-color:#2e2e2f;stop-opacity:1"
   offset="1" />
</radialGradient>
<path
   d="m 28.117,80.504 c -3.094,-1.568 -6.88,-0.333 -8.45,2.758 c -1.572,3.093 -0.339,6.88 2.754,8.456 c 3.103,1.564 6.881,0.337 8.454,-2.762 c 1.572,-3.095 0.342,-6.874 -2.758,-8.452"
   id="path4029"
   style="fill:#ffffff" />
<radialGradient
   cx="73.822304"
   cy="72.790497"
   r="73.054901"
   id="SVGID_18_"
   gradientUnits="userSpaceOnUse">
	<stop
   id="stop4032"
   style="stop-color:#ffffff;stop-opacity:1"
   offset="0.14839999" />
	<stop
   id="stop4034"
   style="stop-color:#f2f3f3;stop-opacity:1"
   offset="0.1831" />
	<stop
   id="stop4036"
   style="stop-color:#a2a4a7;stop-opacity:1"
   offset="0.48809999" />
	<stop
   id="stop4038"
   style="stop-color:#6d6e71;stop-opacity:1"
   offset="0.73470002" />
	<stop
   id="stop4040"
   style="stop-color:#474749;stop-opacity:1"
   offset="0.9109" />
	<stop
   id="stop4042"
   style="stop-color:#2e2e2f;stop-opacity:1"
   offset="1" />
</radialGradient>
<path
   d="m 41.031,102.759 c -3.099,-1.573 -6.879,-0.336 -8.446,2.757 c -1.578,3.091 -0.341,6.877 2.752,8.451 c 3.101,1.572 6.88,0.34 8.456,-2.756 c 1.57,-3.088 0.335,-6.877 -2.762,-8.452"
   id="path4044"
   style="fill:#ffffff" />
<radialGradient
   cx="73.823196"
   cy="72.789597"
   r="73.055298"
   id="SVGID_19_"
   gradientUnits="userSpaceOnUse">
	<stop
   id="stop4047"
   style="stop-color:#ffffff;stop-opacity:1"
   offset="0.14839999" />
	<stop
   id="stop4049"
   style="stop-color:#f2f3f3;stop-opacity:1"
   offset="0.1831" />
	<stop
   id="stop4051"
   style="stop-color:#a2a4a7;stop-opacity:1"
   offset="0.48809999" />
	<stop
   id="stop4053"
   style="stop-color:#6d6e71;stop-opacity:1"
   offset="0.73470002" />
	<stop
   id="stop4055"
   style="stop-color:#474749;stop-opacity:1"
   offset="0.9109" />
	<stop
   id="stop4057"
   style="stop-color:#2e2e2f;stop-opacity:1"
   offset="1" />
</radialGradient>
<path
   d="m 63.375,115.524 c -3.095,-1.574 -6.883,-0.333 -8.448,2.758 c -1.575,3.088 -0.343,6.876 2.752,8.452 c 3.099,1.57 6.883,0.337 8.452,-2.762 c 1.574,-3.095 0.345,-6.876 -2.756,-8.448"
   id="path4059"
   style="fill:#ffffff" />
<radialGradient
   cx="73.8237"
   cy="72.7827"
   r="73.063202"
   id="SVGID_20_"
   gradientUnits="userSpaceOnUse">
	<stop
   id="stop4062"
   style="stop-color:#ffffff;stop-opacity:1"
   offset="0.14839999" />
	<stop
   id="stop4064"
   style="stop-color:#f2f3f3;stop-opacity:1"
   offset="0.1831" />
	<stop
   id="stop4066"
   style="stop-color:#a2a4a7;stop-opacity:1"
   offset="0.48809999" />
	<stop
   id="stop4068"
   style="stop-color:#6d6e71;stop-opacity:1"
   offset="0.73470002" />
	<stop
   id="stop4070"
   style="stop-color:#474749;stop-opacity:1"
   offset="0.9109" />
	<stop
   id="stop4072"
   style="stop-color:#2e2e2f;stop-opacity:1"
   offset="1" />
</radialGradient>
<path
   d="m 89.114,115.494 c -3.095,-1.576 -6.884,-0.337 -8.444,2.753 c -1.58,3.093 -0.341,6.882 2.75,8.455 c 3.099,1.569 6.879,0.336 8.456,-2.76 c 1.572,-3.091 0.341,-6.876 -2.762,-8.448"
   id="path4074"
   style="fill:#ffffff" />
<radialGradient
   cx="73.8228"
   cy="72.786598"
   r="73.057602"
   id="SVGID_21_"
   gradientUnits="userSpaceOnUse">
	<stop
   id="stop4077"
   style="stop-color:#ffffff;stop-opacity:1"
   offset="0.14839999" />
	<stop
   id="stop4079"
   style="stop-color:#f2f3f3;stop-opacity:1"
   offset="0.1831" />
	<stop
   id="stop4081"
   style="stop-color:#a2a4a7;stop-opacity:1"
   offset="0.48809999" />
	<stop
   id="stop4083"
   style="stop-color:#6d6e71;stop-opacity:1"
   offset="0.73470002" />
	<stop
   id="stop4085"
   style="stop-color:#474749;stop-opacity:1"
   offset="0.9109" />
	<stop
   id="stop4087"
   style="stop-color:#2e2e2f;stop-opacity:1"
   offset="1" />
</radialGradient>
<path
   d="m 111.31,102.636 c -3.099,-1.57 -6.888,-0.331 -8.452,2.762 c -1.576,3.091 -0.34,6.878 2.754,8.447 c 3.099,1.572 6.884,0.342 8.453,-2.758 c 1.571,-3.096 0.336,-6.87 -2.755,-8.451"
   id="path4089"
   style="fill:#ffffff" />
<radialGradient
   cx="73.820801"
   cy="72.787598"
   r="73.064003"
   id="SVGID_22_"
   gradientUnits="userSpaceOnUse">
	<stop
   id="stop4092"
   style="stop-color:#ffffff;stop-opacity:1"
   offset="0.14839999" />
	<stop
   id="stop4094"
   style="stop-color:#f2f3f3;stop-opacity:1"
   offset="0.1831" />
	<stop
   id="stop4096"
   style="stop-color:#a2a4a7;stop-opacity:1"
   offset="0.48809999" />
	<stop
   id="stop4098"
   style="stop-color:#6d6e71;stop-opacity:1"
   offset="0.73470002" />
	<stop
   id="stop4100"
   style="stop-color:#474749;stop-opacity:1"
   offset="0.9109" />
	<stop
   id="stop4102"
   style="stop-color:#2e2e2f;stop-opacity:1"
   offset="1" />
</radialGradient>
<path
   d="m 105.578,43.726 c 3.099,1.564 6.884,0.335 8.459,-2.764 c 1.568,-3.091 0.337,-6.876 -2.761,-8.446 c -3.091,-1.576 -6.879,-0.34 -8.444,2.755 c -1.577,3.088 -0.345,6.878 2.746,8.455"
   id="path4104"
   style="fill:#ffffff" />
<radialGradient
   cx="73.8228"
   cy="72.787598"
   r="73.062798"
   id="SVGID_23_"
   gradientUnits="userSpaceOnUse">
	<stop
   id="stop4107"
   style="stop-color:#ffffff;stop-opacity:1"
   offset="0.14839999" />
	<stop
   id="stop4109"
   style="stop-color:#f2f3f3;stop-opacity:1"
   offset="0.1831" />
	<stop
   id="stop4111"
   style="stop-color:#a2a4a7;stop-opacity:1"
   offset="0.48809999" />
	<stop
   id="stop4113"
   style="stop-color:#6d6e71;stop-opacity:1"
   offset="0.73470002" />
	<stop
   id="stop4115"
   style="stop-color:#474749;stop-opacity:1"
   offset="0.9109" />
	<stop
   id="stop4117"
   style="stop-color:#2e2e2f;stop-opacity:1"
   offset="1" />
</radialGradient>
<path
   d="m 83.359,30.9 c 3.099,1.568 6.88,0.335 8.453,-2.759 c 1.577,-3.098 0.341,-6.878 -2.758,-8.447 c -3.094,-1.578 -6.879,-0.339 -8.448,2.754 c -1.572,3.09 -0.338,6.878 2.753,8.452"
   id="path4119"
   style="fill:#ffffff" />
<radialGradient
   cx="73.8228"
   cy="72.788597"
   r="73.064499"
   id="SVGID_24_"
   gradientUnits="userSpaceOnUse">
	<stop
   id="stop4122"
   style="stop-color:#ffffff;stop-opacity:1"
   offset="0.14839999" />
	<stop
   id="stop4124"
   style="stop-color:#f2f3f3;stop-opacity:1"
   offset="0.1831" />
	<stop
   id="stop4126"
   style="stop-color:#a2a4a7;stop-opacity:1"
   offset="0.48809999" />
	<stop
   id="stop4128"
   style="stop-color:#6d6e71;stop-opacity:1"
   offset="0.73470002" />
	<stop
   id="stop4130"
   style="stop-color:#474749;stop-opacity:1"
   offset="0.9109" />
	<stop
   id="stop4132"
   style="stop-color:#2e2e2f;stop-opacity:1"
   offset="1" />
</radialGradient>
<path
   d="m 63.406,19.627 c -3.098,-1.574 -6.886,-0.339 -8.45,2.764 c -1.572,3.083 -0.339,6.872 2.756,8.446 c 3.099,1.574 6.88,0.339 8.452,-2.76 c 1.57,-3.09 0.34,-6.871 -2.758,-8.45"
   id="path4134"
   style="fill:#ffffff" />
<radialGradient
   cx="73.8228"
   cy="72.786598"
   r="73.062897"
   id="SVGID_25_"
   gradientUnits="userSpaceOnUse">
	<stop
   id="stop4137"
   style="stop-color:#ffffff;stop-opacity:1"
   offset="0.14839999" />
	<stop
   id="stop4139"
   style="stop-color:#f2f3f3;stop-opacity:1"
   offset="0.1831" />
	<stop
   id="stop4141"
   style="stop-color:#a2a4a7;stop-opacity:1"
   offset="0.48809999" />
	<stop
   id="stop4143"
   style="stop-color:#6d6e71;stop-opacity:1"
   offset="0.73470002" />
	<stop
   id="stop4145"
   style="stop-color:#474749;stop-opacity:1"
   offset="0.9109" />
	<stop
   id="stop4147"
   style="stop-color:#2e2e2f;stop-opacity:1"
   offset="1" />
</radialGradient>
<path
   d="m 44.496,51.016 c -2.673,-0.568 -5.311,1.145 -5.876,3.827 c -0.572,2.67 1.15,5.311 3.829,5.875 c 2.68,0.564 5.311,-1.147 5.877,-3.83 c 0.564,-2.675 -1.147,-5.308 -3.83,-5.872"
   id="path4149"
   style="fill:#ffffff" />
<radialGradient
   cx="73.824699"
   cy="72.785599"
   r="73.064796"
   id="SVGID_26_"
   gradientUnits="userSpaceOnUse">
	<stop
   id="stop4152"
   style="stop-color:#ffffff;stop-opacity:1"
   offset="0.14839999" />
	<stop
   id="stop4154"
   style="stop-color:#f2f3f3;stop-opacity:1"
   offset="0.1831" />
	<stop
   id="stop4156"
   style="stop-color:#a2a4a7;stop-opacity:1"
   offset="0.48809999" />
	<stop
   id="stop4158"
   style="stop-color:#6d6e71;stop-opacity:1"
   offset="0.73470002" />
	<stop
   id="stop4160"
   style="stop-color:#474749;stop-opacity:1"
   offset="0.9109" />
	<stop
   id="stop4162"
   style="stop-color:#2e2e2f;stop-opacity:1"
   offset="1" />
</radialGradient>
<path
   d="m 43.607,74.224 c 0.562,-2.683 -1.142,-5.312 -3.83,-5.88 c -2.678,-0.561 -5.308,1.153 -5.872,3.832 c -0.57,2.673 1.146,5.306 3.822,5.871 c 2.685,0.568 5.312,-1.145 5.88,-3.823"
   id="path4164"
   style="fill:#ffffff" />
<radialGradient
   cx="73.822304"
   cy="72.783699"
   r="73.064598"
   id="SVGID_27_"
   gradientUnits="userSpaceOnUse">
	<stop
   id="stop4167"
   style="stop-color:#ffffff;stop-opacity:1"
   offset="0.14839999" />
	<stop
   id="stop4169"
   style="stop-color:#f2f3f3;stop-opacity:1"
   offset="0.1831" />
	<stop
   id="stop4171"
   style="stop-color:#a2a4a7;stop-opacity:1"
   offset="0.48809999" />
	<stop
   id="stop4173"
   style="stop-color:#6d6e71;stop-opacity:1"
   offset="0.73470002" />
	<stop
   id="stop4175"
   style="stop-color:#474749;stop-opacity:1"
   offset="0.9109" />
	<stop
   id="stop4177"
   style="stop-color:#2e2e2f;stop-opacity:1"
   offset="1" />
</radialGradient>
<path
   d="m 44.439,85.614 c -2.677,-0.568 -5.308,1.148 -5.873,3.823 c -0.568,2.675 1.148,5.312 3.826,5.872 c 2.68,0.568 5.309,-1.144 5.876,-3.828 c 0.565,-2.676 -1.141,-5.303 -3.829,-5.867"
   id="path4179"
   style="fill:#ffffff" />
<radialGradient
   cx="73.820801"
   cy="72.7827"
   r="73.066399"
   id="SVGID_28_"
   gradientUnits="userSpaceOnUse">
	<stop
   id="stop4182"
   style="stop-color:#ffffff;stop-opacity:1"
   offset="0.14839999" />
	<stop
   id="stop4184"
   style="stop-color:#f2f3f3;stop-opacity:1"
   offset="0.1831" />
	<stop
   id="stop4186"
   style="stop-color:#a2a4a7;stop-opacity:1"
   offset="0.48809999" />
	<stop
   id="stop4188"
   style="stop-color:#6d6e71;stop-opacity:1"
   offset="0.73470002" />
	<stop
   id="stop4190"
   style="stop-color:#474749;stop-opacity:1"
   offset="0.9109" />
	<stop
   id="stop4192"
   style="stop-color:#2e2e2f;stop-opacity:1"
   offset="1" />
</radialGradient>
<path
   d="m 57.094,98.204 c -2.677,-0.567 -5.313,1.151 -5.878,3.825 c -0.567,2.678 1.15,5.313 3.826,5.879 c 2.681,0.566 5.312,-1.153 5.876,-3.828 c 0.57,-2.676 -1.142,-5.308 -3.824,-5.876"
   id="path4194"
   style="fill:#ffffff" />
<radialGradient
   cx="73.8228"
   cy="72.787598"
   r="73.055496"
   id="SVGID_29_"
   gradientUnits="userSpaceOnUse">
	<stop
   id="stop4197"
   style="stop-color:#ffffff;stop-opacity:1"
   offset="0.14839999" />
	<stop
   id="stop4199"
   style="stop-color:#f2f3f3;stop-opacity:1"
   offset="0.1831" />
	<stop
   id="stop4201"
   style="stop-color:#a2a4a7;stop-opacity:1"
   offset="0.48809999" />
	<stop
   id="stop4203"
   style="stop-color:#6d6e71;stop-opacity:1"
   offset="0.73470002" />
	<stop
   id="stop4205"
   style="stop-color:#474749;stop-opacity:1"
   offset="0.9109" />
	<stop
   id="stop4207"
   style="stop-color:#2e2e2f;stop-opacity:1"
   offset="1" />
</radialGradient>
<path
   d="m 74.359,102.743 c -2.68,-0.561 -5.313,1.151 -5.874,3.832 c -0.57,2.671 1.14,5.31 3.823,5.873 c 2.676,0.564 5.312,-1.151 5.877,-3.828 c 0.567,-2.671 -1.137,-5.308 -3.826,-5.877"
   id="path4209"
   style="fill:#ffffff" />
<radialGradient
   cx="73.8228"
   cy="72.787598"
   r="73.056503"
   id="SVGID_30_"
   gradientUnits="userSpaceOnUse">
	<stop
   id="stop4212"
   style="stop-color:#ffffff;stop-opacity:1"
   offset="0.14839999" />
	<stop
   id="stop4214"
   style="stop-color:#f2f3f3;stop-opacity:1"
   offset="0.1831" />
	<stop
   id="stop4216"
   style="stop-color:#a2a4a7;stop-opacity:1"
   offset="0.48809999" />
	<stop
   id="stop4218"
   style="stop-color:#6d6e71;stop-opacity:1"
   offset="0.73470002" />
	<stop
   id="stop4220"
   style="stop-color:#474749;stop-opacity:1"
   offset="0.9109" />
	<stop
   id="stop4222"
   style="stop-color:#2e2e2f;stop-opacity:1"
   offset="1" />
</radialGradient>
<path
   d="m 91.603,98.102 c -2.682,-0.562 -5.315,1.149 -5.876,3.829 c -0.572,2.677 1.148,5.308 3.823,5.877 c 2.685,0.562 5.314,-1.148 5.88,-3.835 c 0.564,-2.674 -1.145,-5.303 -3.827,-5.871"
   id="path4224"
   style="fill:#ffffff" />
<radialGradient
   cx="73.8218"
   cy="72.788597"
   r="73.0578"
   id="SVGID_31_"
   gradientUnits="userSpaceOnUse">
	<stop
   id="stop4227"
   style="stop-color:#ffffff;stop-opacity:1"
   offset="0.14839999" />
	<stop
   id="stop4229"
   style="stop-color:#f2f3f3;stop-opacity:1"
   offset="0.1831" />
	<stop
   id="stop4231"
   style="stop-color:#a2a4a7;stop-opacity:1"
   offset="0.48809999" />
	<stop
   id="stop4233"
   style="stop-color:#6d6e71;stop-opacity:1"
   offset="0.73470002" />
	<stop
   id="stop4235"
   style="stop-color:#474749;stop-opacity:1"
   offset="0.9109" />
	<stop
   id="stop4237"
   style="stop-color:#2e2e2f;stop-opacity:1"
   offset="1" />
</radialGradient>
<path
   d="m 104.161,85.501 c -2.675,-0.564 -5.307,1.153 -5.871,3.83 c -0.568,2.675 1.147,5.312 3.826,5.874 c 2.682,0.562 5.311,-1.146 5.876,-3.829 c 0.564,-2.673 -1.148,-5.308 -3.831,-5.875"
   id="path4239"
   style="fill:#ffffff" />
<radialGradient
   cx="73.820297"
   cy="72.786598"
   r="73.0653"
   id="SVGID_32_"
   gradientUnits="userSpaceOnUse">
	<stop
   id="stop4242"
   style="stop-color:#ffffff;stop-opacity:1"
   offset="0.14839999" />
	<stop
   id="stop4244"
   style="stop-color:#f2f3f3;stop-opacity:1"
   offset="0.1831" />
	<stop
   id="stop4246"
   style="stop-color:#a2a4a7;stop-opacity:1"
   offset="0.48809999" />
	<stop
   id="stop4248"
   style="stop-color:#6d6e71;stop-opacity:1"
   offset="0.73470002" />
	<stop
   id="stop4250"
   style="stop-color:#474749;stop-opacity:1"
   offset="0.9109" />
	<stop
   id="stop4252"
   style="stop-color:#2e2e2f;stop-opacity:1"
   offset="1" />
</radialGradient>
<path
   d="m 108.723,68.276 c -2.694,-0.564 -5.319,1.154 -5.884,3.83 c -0.564,2.675 1.148,5.312 3.827,5.874 c 2.682,0.562 5.314,-1.146 5.879,-3.828 c 0.561,-2.679 -1.148,-5.304 -3.822,-5.876"
   id="path4254"
   style="fill:#ffffff" />
<radialGradient
   cx="73.819801"
   cy="72.785599"
   r="73.065804"
   id="SVGID_33_"
   gradientUnits="userSpaceOnUse">
	<stop
   id="stop4257"
   style="stop-color:#ffffff;stop-opacity:1"
   offset="0.14839999" />
	<stop
   id="stop4259"
   style="stop-color:#f2f3f3;stop-opacity:1"
   offset="0.1831" />
	<stop
   id="stop4261"
   style="stop-color:#a2a4a7;stop-opacity:1"
   offset="0.48809999" />
	<stop
   id="stop4263"
   style="stop-color:#6d6e71;stop-opacity:1"
   offset="0.73470002" />
	<stop
   id="stop4265"
   style="stop-color:#474749;stop-opacity:1"
   offset="0.9109" />
	<stop
   id="stop4267"
   style="stop-color:#2e2e2f;stop-opacity:1"
   offset="1" />
</radialGradient>
<path
   d="m 102.06,60.86 c 2.682,0.566 5.311,-1.146 5.879,-3.828 c 0.56,-2.678 -1.152,-5.308 -3.834,-5.875 c -2.678,-0.564 -5.308,1.151 -5.873,3.832 c -0.564,2.672 1.144,5.31 3.828,5.871"
   id="path4269"
   style="fill:#ffffff" />
<radialGradient
   cx="73.824203"
   cy="72.784698"
   r="73.056999"
   id="SVGID_34_"
   gradientUnits="userSpaceOnUse">
	<stop
   id="stop4272"
   style="stop-color:#ffffff;stop-opacity:1"
   offset="0.14839999" />
	<stop
   id="stop4274"
   style="stop-color:#f2f3f3;stop-opacity:1"
   offset="0.1831" />
	<stop
   id="stop4276"
   style="stop-color:#a2a4a7;stop-opacity:1"
   offset="0.48809999" />
	<stop
   id="stop4278"
   style="stop-color:#6d6e71;stop-opacity:1"
   offset="0.73470002" />
	<stop
   id="stop4280"
   style="stop-color:#474749;stop-opacity:1"
   offset="0.9109" />
	<stop
   id="stop4282"
   style="stop-color:#2e2e2f;stop-opacity:1"
   offset="1" />
</radialGradient>
<path
   d="m 89.508,48.22 c 2.675,0.564 5.304,-1.146 5.873,-3.832 c 0.563,-2.676 -1.146,-5.306 -3.831,-5.875 c -2.675,-0.56 -5.312,1.148 -5.868,3.83 c -0.572,2.675 1.141,5.313 3.826,5.877"
   id="path4284"
   style="fill:#ffffff" />
<radialGradient
   cx="73.8228"
   cy="72.786598"
   r="73.0616"
   id="SVGID_35_"
   gradientUnits="userSpaceOnUse">
	<stop
   id="stop4287"
   style="stop-color:#ffffff;stop-opacity:1"
   offset="0.14839999" />
	<stop
   id="stop4289"
   style="stop-color:#f2f3f3;stop-opacity:1"
   offset="0.1831" />
	<stop
   id="stop4291"
   style="stop-color:#a2a4a7;stop-opacity:1"
   offset="0.48809999" />
	<stop
   id="stop4293"
   style="stop-color:#6d6e71;stop-opacity:1"
   offset="0.73470002" />
	<stop
   id="stop4295"
   style="stop-color:#474749;stop-opacity:1"
   offset="0.9109" />
	<stop
   id="stop4297"
   style="stop-color:#2e2e2f;stop-opacity:1"
   offset="1" />
</radialGradient>
<path
   d="m 72.308,43.617 c 2.678,0.561 5.312,-1.144 5.877,-3.83 c 0.567,-2.679 -1.145,-5.308 -3.826,-5.878 c -2.684,-0.566 -5.313,1.15 -5.874,3.833 c -0.569,2.675 1.143,5.305 3.823,5.875"
   id="path4299"
   style="fill:#ffffff" />
<radialGradient
   cx="73.824699"
   cy="72.787598"
   r="73.064796"
   id="SVGID_36_"
   gradientUnits="userSpaceOnUse">
	<stop
   id="stop4302"
   style="stop-color:#ffffff;stop-opacity:1"
   offset="0.14839999" />
	<stop
   id="stop4304"
   style="stop-color:#f2f3f3;stop-opacity:1"
   offset="0.1831" />
	<stop
   id="stop4306"
   style="stop-color:#a2a4a7;stop-opacity:1"
   offset="0.48809999" />
	<stop
   id="stop4308"
   style="stop-color:#6d6e71;stop-opacity:1"
   offset="0.73470002" />
	<stop
   id="stop4310"
   style="stop-color:#474749;stop-opacity:1"
   offset="0.9109" />
	<stop
   id="stop4312"
   style="stop-color:#2e2e2f;stop-opacity:1"
   offset="1" />
</radialGradient>
<path
   d="m 57.158,38.479 c -2.682,-0.566 -5.312,1.15 -5.87,3.824 c -0.568,2.675 1.144,5.312 3.82,5.878 c 2.682,0.567 5.312,-1.15 5.882,-3.824 c 0.561,-2.683 -1.148,-5.312 -3.832,-5.878"
   id="path4314"
   style="fill:#ffffff" />
<radialGradient
   cx="73.8228"
   cy="72.784698"
   r="73.056702"
   id="SVGID_37_"
   gradientUnits="userSpaceOnUse">
	<stop
   id="stop4317"
   style="stop-color:#ffffff;stop-opacity:1"
   offset="0.14839999" />
	<stop
   id="stop4319"
   style="stop-color:#f2f3f3;stop-opacity:1"
   offset="0.1831" />
	<stop
   id="stop4321"
   style="stop-color:#a2a4a7;stop-opacity:1"
   offset="0.48809999" />
	<stop
   id="stop4323"
   style="stop-color:#6d6e71;stop-opacity:1"
   offset="0.73470002" />
	<stop
   id="stop4325"
   style="stop-color:#474749;stop-opacity:1"
   offset="0.9109" />
	<stop
   id="stop4327"
   style="stop-color:#2e2e2f;stop-opacity:1"
   offset="1" />
</radialGradient>
<path
   d="m 94.675,75.922 c -1.446,-0.734 -3.208,-0.154 -3.943,1.29 c -0.731,1.445 -0.159,3.213 1.289,3.952 c 1.443,0.729 3.208,0.152 3.943,-1.292 c 0.734,-1.445 0.162,-3.208 -1.289,-3.95"
   id="path4329"
   style="fill:#ffffff" />
<radialGradient
   cx="73.825203"
   cy="72.783699"
   r="73.053299"
   id="SVGID_38_"
   gradientUnits="userSpaceOnUse">
	<stop
   id="stop4332"
   style="stop-color:#ffffff;stop-opacity:1"
   offset="0.14839999" />
	<stop
   id="stop4334"
   style="stop-color:#f2f3f3;stop-opacity:1"
   offset="0.1831" />
	<stop
   id="stop4336"
   style="stop-color:#a2a4a7;stop-opacity:1"
   offset="0.48809999" />
	<stop
   id="stop4338"
   style="stop-color:#6d6e71;stop-opacity:1"
   offset="0.73470002" />
	<stop
   id="stop4340"
   style="stop-color:#474749;stop-opacity:1"
   offset="0.9109" />
	<stop
   id="stop4342"
   style="stop-color:#2e2e2f;stop-opacity:1"
   offset="1" />
</radialGradient>
<path
   d="m 92.005,70.435 c 1.446,0.735 3.213,0.159 3.948,-1.288 c 0.735,-1.446 0.158,-3.213 -1.288,-3.947 c -1.448,-0.735 -3.217,-0.159 -3.944,1.286 c -0.736,1.445 -0.156,3.215 1.284,3.949"
   id="path4344"
   style="fill:#ffffff" />
<radialGradient
   cx="73.8237"
   cy="72.785599"
   r="73.063599"
   id="SVGID_39_"
   gradientUnits="userSpaceOnUse">
	<stop
   id="stop4347"
   style="stop-color:#ffffff;stop-opacity:1"
   offset="0.14839999" />
	<stop
   id="stop4349"
   style="stop-color:#f2f3f3;stop-opacity:1"
   offset="0.1831" />
	<stop
   id="stop4351"
   style="stop-color:#a2a4a7;stop-opacity:1"
   offset="0.48809999" />
	<stop
   id="stop4353"
   style="stop-color:#6d6e71;stop-opacity:1"
   offset="0.73470002" />
	<stop
   id="stop4355"
   style="stop-color:#474749;stop-opacity:1"
   offset="0.9109" />
	<stop
   id="stop4357"
   style="stop-color:#2e2e2f;stop-opacity:1"
   offset="1" />
</radialGradient>
<path
   d="M 59.892,55.782 C 58.449,55.047 56.68,55.627 55.948,57.07 c -0.736,1.443 -0.159,3.213 1.287,3.951 c 1.447,0.73 3.21,0.153 3.947,-1.292 c 0.733,-1.445 0.157,-3.212 -1.29,-3.947"
   id="path4359"
   style="fill:#ffffff" />
<radialGradient
   cx="73.8218"
   cy="72.785599"
   r="73.058098"
   id="SVGID_40_"
   gradientUnits="userSpaceOnUse">
	<stop
   id="stop4362"
   style="stop-color:#ffffff;stop-opacity:1"
   offset="0.14839999" />
	<stop
   id="stop4364"
   style="stop-color:#f2f3f3;stop-opacity:1"
   offset="0.1831" />
	<stop
   id="stop4366"
   style="stop-color:#a2a4a7;stop-opacity:1"
   offset="0.48809999" />
	<stop
   id="stop4368"
   style="stop-color:#6d6e71;stop-opacity:1"
   offset="0.73470002" />
	<stop
   id="stop4370"
   style="stop-color:#474749;stop-opacity:1"
   offset="0.9109" />
	<stop
   id="stop4372"
   style="stop-color:#2e2e2f;stop-opacity:1"
   offset="1" />
</radialGradient>
<path
   d="m 51.767,70.409 c 1.445,0.734 3.211,0.159 3.948,-1.287 c 0.732,-1.448 0.157,-3.214 -1.292,-3.952 c -1.443,-0.734 -3.211,-0.153 -3.94,1.29 c -0.733,1.445 -0.161,3.216 1.284,3.949"
   id="path4374"
   style="fill:#ffffff" />
<radialGradient
   cx="73.8218"
   cy="72.786598"
   r="73.058098"
   id="SVGID_41_"
   gradientUnits="userSpaceOnUse">
	<stop
   id="stop4377"
   style="stop-color:#ffffff;stop-opacity:1"
   offset="0.14839999" />
	<stop
   id="stop4379"
   style="stop-color:#f2f3f3;stop-opacity:1"
   offset="0.1831" />
	<stop
   id="stop4381"
   style="stop-color:#a2a4a7;stop-opacity:1"
   offset="0.48809999" />
	<stop
   id="stop4383"
   style="stop-color:#6d6e71;stop-opacity:1"
   offset="0.73470002" />
	<stop
   id="stop4385"
   style="stop-color:#474749;stop-opacity:1"
   offset="0.9109" />
	<stop
   id="stop4387"
   style="stop-color:#2e2e2f;stop-opacity:1"
   offset="1" />
</radialGradient>
<path
   d="m 54.448,75.99 c -1.445,-0.735 -3.214,-0.16 -3.943,1.287 c -0.735,1.442 -0.16,3.213 1.282,3.947 c 1.449,0.735 3.214,0.16 3.947,-1.289 c 0.735,-1.444 0.161,-3.211 -1.286,-3.945"
   id="path4389"
   style="fill:#ffffff" />
<radialGradient
   cx="73.823196"
   cy="72.788597"
   r="73.055397"
   id="SVGID_42_"
   gradientUnits="userSpaceOnUse">
	<stop
   id="stop4392"
   style="stop-color:#ffffff;stop-opacity:1"
   offset="0.14839999" />
	<stop
   id="stop4394"
   style="stop-color:#f2f3f3;stop-opacity:1"
   offset="0.1831" />
	<stop
   id="stop4396"
   style="stop-color:#a2a4a7;stop-opacity:1"
   offset="0.48809999" />
	<stop
   id="stop4398"
   style="stop-color:#6d6e71;stop-opacity:1"
   offset="0.73470002" />
	<stop
   id="stop4400"
   style="stop-color:#474749;stop-opacity:1"
   offset="0.9109" />
	<stop
   id="stop4402"
   style="stop-color:#2e2e2f;stop-opacity:1"
   offset="1" />
</radialGradient>
<path
   d="m 59.859,85.328 c -1.445,-0.735 -3.208,-0.157 -3.939,1.286 c -0.737,1.447 -0.16,3.214 1.284,3.949 c 1.445,0.736 3.213,0.163 3.946,-1.288 c 0.734,-1.445 0.159,-3.213 -1.291,-3.947"
   id="path4404"
   style="fill:#ffffff" />
<radialGradient
   cx="73.822304"
   cy="72.791496"
   r="73.040604"
   id="SVGID_43_"
   gradientUnits="userSpaceOnUse">
	<stop
   id="stop4407"
   style="stop-color:#ffffff;stop-opacity:1"
   offset="0.14839999" />
	<stop
   id="stop4409"
   style="stop-color:#f2f3f3;stop-opacity:1"
   offset="0.1831" />
	<stop
   id="stop4411"
   style="stop-color:#a2a4a7;stop-opacity:1"
   offset="0.48809999" />
	<stop
   id="stop4413"
   style="stop-color:#6d6e71;stop-opacity:1"
   offset="0.73470002" />
	<stop
   id="stop4415"
   style="stop-color:#474749;stop-opacity:1"
   offset="0.9109" />
	<stop
   id="stop4417"
   style="stop-color:#2e2e2f;stop-opacity:1"
   offset="1" />
</radialGradient>
<path
   d="m 69.23,90.684 c -1.443,-0.737 -3.213,-0.155 -3.943,1.288 c -0.735,1.443 -0.16,3.213 1.285,3.947 c 1.446,0.734 3.211,0.159 3.944,-1.288 c 0.737,-1.447 0.163,-3.214 -1.286,-3.947"
   id="path4419"
   style="fill:#ffffff" />
<radialGradient
   cx="73.821297"
   cy="72.789597"
   r="73.051903"
   id="SVGID_44_"
   gradientUnits="userSpaceOnUse">
	<stop
   id="stop4422"
   style="stop-color:#ffffff;stop-opacity:1"
   offset="0.14839999" />
	<stop
   id="stop4424"
   style="stop-color:#f2f3f3;stop-opacity:1"
   offset="0.1831" />
	<stop
   id="stop4426"
   style="stop-color:#a2a4a7;stop-opacity:1"
   offset="0.48809999" />
	<stop
   id="stop4428"
   style="stop-color:#6d6e71;stop-opacity:1"
   offset="0.73470002" />
	<stop
   id="stop4430"
   style="stop-color:#474749;stop-opacity:1"
   offset="0.9109" />
	<stop
   id="stop4432"
   style="stop-color:#2e2e2f;stop-opacity:1"
   offset="1" />
</radialGradient>
<path
   d="m 80.022,90.673 c -1.448,-0.737 -3.213,-0.16 -3.943,1.285 c -0.74,1.445 -0.16,3.215 1.283,3.949 c 1.444,0.733 3.213,0.155 3.948,-1.287 c 0.735,-1.447 0.16,-3.214 -1.288,-3.947"
   id="path4434"
   style="fill:#ffffff" />
<radialGradient
   cx="73.8218"
   cy="72.786598"
   r="73.060699"
   id="SVGID_45_"
   gradientUnits="userSpaceOnUse">
	<stop
   id="stop4437"
   style="stop-color:#ffffff;stop-opacity:1"
   offset="0.14839999" />
	<stop
   id="stop4439"
   style="stop-color:#f2f3f3;stop-opacity:1"
   offset="0.1831" />
	<stop
   id="stop4441"
   style="stop-color:#a2a4a7;stop-opacity:1"
   offset="0.48809999" />
	<stop
   id="stop4443"
   style="stop-color:#6d6e71;stop-opacity:1"
   offset="0.73470002" />
	<stop
   id="stop4445"
   style="stop-color:#474749;stop-opacity:1"
   offset="0.9109" />
	<stop
   id="stop4447"
   style="stop-color:#2e2e2f;stop-opacity:1"
   offset="1" />
</radialGradient>
<path
   d="m 89.323,85.275 c -1.444,-0.731 -3.209,-0.156 -3.94,1.291 c -0.735,1.443 -0.159,3.213 1.285,3.943 c 1.447,0.74 3.216,0.164 3.948,-1.284 c 0.729,-1.447 0.154,-3.212 -1.293,-3.95"
   id="path4449"
   style="fill:#ffffff" />
<radialGradient
   cx="73.820297"
   cy="72.789597"
   r="73.073997"
   id="SVGID_46_"
   gradientUnits="userSpaceOnUse">
	<stop
   id="stop4452"
   style="stop-color:#ffffff;stop-opacity:1"
   offset="0.14839999" />
	<stop
   id="stop4454"
   style="stop-color:#f2f3f3;stop-opacity:1"
   offset="0.1831" />
	<stop
   id="stop4456"
   style="stop-color:#a2a4a7;stop-opacity:1"
   offset="0.48809999" />
	<stop
   id="stop4458"
   style="stop-color:#6d6e71;stop-opacity:1"
   offset="0.73470002" />
	<stop
   id="stop4460"
   style="stop-color:#474749;stop-opacity:1"
   offset="0.9109" />
	<stop
   id="stop4462"
   style="stop-color:#2e2e2f;stop-opacity:1"
   offset="1" />
</radialGradient>
<path
   d="m 86.655,61.085 c 1.444,0.731 3.209,0.155 3.948,-1.292 c 0.731,-1.443 0.16,-3.212 -1.292,-3.945 c -1.443,-0.737 -3.209,-0.161 -3.939,1.287 c -0.74,1.443 -0.16,3.216 1.283,3.95"
   id="path4464"
   style="fill:#ffffff" />
<radialGradient
   cx="73.823196"
   cy="72.787598"
   r="73.063904"
   id="SVGID_47_"
   gradientUnits="userSpaceOnUse">
	<stop
   id="stop4467"
   style="stop-color:#ffffff;stop-opacity:1"
   offset="0.14839999" />
	<stop
   id="stop4469"
   style="stop-color:#f2f3f3;stop-opacity:1"
   offset="0.1831" />
	<stop
   id="stop4471"
   style="stop-color:#a2a4a7;stop-opacity:1"
   offset="0.48809999" />
	<stop
   id="stop4473"
   style="stop-color:#6d6e71;stop-opacity:1"
   offset="0.73470002" />
	<stop
   id="stop4475"
   style="stop-color:#474749;stop-opacity:1"
   offset="0.9109" />
	<stop
   id="stop4477"
   style="stop-color:#2e2e2f;stop-opacity:1"
   offset="1" />
</radialGradient>
<path
   d="m 77.337,55.702 c 1.446,0.733 3.216,0.158 3.946,-1.288 c 0.735,-1.447 0.156,-3.215 -1.288,-3.948 c -1.443,-0.737 -3.212,-0.159 -3.939,1.286 c -0.736,1.442 -0.164,3.215 1.281,3.95"
   id="path4479"
   style="fill:#ffffff" />
<radialGradient
   cx="73.8218"
   cy="72.784698"
   r="73.056198"
   id="SVGID_48_"
   gradientUnits="userSpaceOnUse">
	<stop
   id="stop4482"
   style="stop-color:#ffffff;stop-opacity:1"
   offset="0.14839999" />
	<stop
   id="stop4484"
   style="stop-color:#f2f3f3;stop-opacity:1"
   offset="0.1831" />
	<stop
   id="stop4486"
   style="stop-color:#a2a4a7;stop-opacity:1"
   offset="0.48809999" />
	<stop
   id="stop4488"
   style="stop-color:#6d6e71;stop-opacity:1"
   offset="0.73470002" />
	<stop
   id="stop4490"
   style="stop-color:#474749;stop-opacity:1"
   offset="0.9109" />
	<stop
   id="stop4492"
   style="stop-color:#2e2e2f;stop-opacity:1"
   offset="1" />
</radialGradient>
<path
   d="M 69.244,50.44 C 67.798,49.703 66.029,50.28 65.3,51.728 c -0.735,1.443 -0.159,3.212 1.284,3.947 c 1.447,0.735 3.21,0.161 3.945,-1.288 C 71.264,52.94 70.69,51.175 69.244,50.44"
   id="path4494"
   style="fill:#ffffff" />
</svg>